<svg xmlns="http://www.w3.org/2000/svg" version="1.1" xmlns:xlink="http://www.w3.org/1999/xlink" xmlns:svgjs="http://svgjs.dev/svgjs" width="1500" height="1500" viewBox="0 0 1500 1500"><rect width="1500" height="1500" fill="#ececea"></rect><g transform="matrix(0.6666666666666666,0,0,0.6666666666666666,250.31906154987945,332.1930351840201)"><svg viewBox="0 0 295 247" data-background-color="#ececea" preserveAspectRatio="xMidYMid meet" height="1255" width="1500" xmlns="http://www.w3.org/2000/svg" xmlns:xlink="http://www.w3.org/1999/xlink"><g id="tight-bounds" transform="matrix(1,0,0,1,-0.0941231572144261,-0.04957116167645381)"><svg viewBox="0 0 295.18824631442885 247.2" height="247.2" width="295.18824631442885"><g><svg viewBox="0 0 395.52 331.2209927757576" height="247.2" width="295.18824631442885"><g transform="matrix(1,0,0,1,0,204.70786146262628)"><svg viewBox="0 0 395.52 126.51313131313131" height="126.51313131313131" width="395.52"><g id="textblocktransform"><svg viewBox="0 0 395.52 126.51313131313131" height="126.51313131313131" width="395.52" id="textblock"><g><svg viewBox="0 0 395.52 126.51313131313131" height="126.51313131313131" width="395.52"><g transform="matrix(1,0,0,1,0,0)"><svg width="395.52" viewBox="-7.6 -23.55 118.78 38" height="126.51313131313131" data-palette-color="#009b7d"><path d="M-6.45 14.45L-6.45 14.45Q-6.95 14.45-7.15 14.35L-7.15 14.35Q-7.3 14.2-7.45 14-7.6 13.8-7.6 13.65L-7.6 13.65Q-7.5 11.5-6.25 8.75-5 6-2.98 3-0.95 0 1.35-2.75L1.35-2.75Q3.4-5.25 4.2-6.5L4.2-6.5Q4.85-7.6 5.73-9.73 6.6-11.85 7.7-14.95L7.7-14.95Q7.8-15.25 8.45-15.35L8.45-15.35Q9.25-15.35 9.25-14.15L9.25-14.15Q9.25-13.5 9.1-13.2L9.1-13.2Q9.05-12.95 8.97-12.73 8.9-12.5 8.85-12.4L8.85-12.4Q8.7-12.1 8.7-12L8.7-12Q8.7-12 8.75-11.85 8.8-11.7 8.85-11.45L8.85-11.45Q10.5-12.25 11.75-12.73 13-13.2 14.15-13.2L14.15-13.2Q15.5-13.2 16-12.3L16-12.3Q16.15-12 16.15-11.55L16.15-11.55Q16.15-10.45 15.3-8.78 14.45-7.1 13.13-5.33 11.8-3.55 10.25-2.15L10.25-2.15Q9.7-1.65 8.68-1.05 7.65-0.45 6.48 0.08 5.3 0.6 4.23 0.95 3.15 1.3 2.55 1.3L2.55 1.3Q1.9 2.65 1.25 3.93 0.6 5.2-0.1 6.4L-0.1 6.4Q-3.3 12.1-5.8 14.35L-5.8 14.35Q-5.9 14.45-6.45 14.45ZM4.5-2.75L3.6-0.85Q5.95-1.25 8.6-2.9L8.6-2.9Q11.25-4.55 13-6.85 14.75-9.15 14.6-11.45L14.6-11.45Q14.3-12.35 13.35-12.35L13.35-12.35Q12.7-12.35 11.73-11.9 10.75-11.45 9.75-10.75 8.75-10.05 7.98-9.35 7.2-8.65 6.9-8.15L6.9-8.15Q6.65-7.8 6.3-6.9L6.3-6.9Q6.1-6.5 6-6.2 5.9-5.9 5.85-5.8L5.85-5.8Q5.6-5.15 5.25-4.38 4.9-3.6 4.5-2.75L4.5-2.75ZM-5.85 11.5L-5.85 11.5Q-5.85 11.7-5.75 11.7L-5.75 11.7Q-5.5 11.7-4.85 10.95L-4.85 10.95Q-3.8 9.85-3.25 8.95L-3.25 8.95Q-2.25 7.35-1.38 5.75-0.5 4.15 0.3 2.55L0.3 2.55Q1.95-0.65 1.7-1.35L1.7-1.35Q0.95-0.6-0.08 0.83-1.1 2.25-2.18 4-3.25 5.75-4.17 7.48-5.1 9.2-5.6 10.55L-5.6 10.55Q-5.85 11.4-5.85 11.5ZM16.1 0.85L16.1 0.85Q14.15 0.85 14.15-0.9L14.15-0.9Q14.15-1 14.17-1.25 14.2-1.5 14.25-1.85L14.25-1.85Q14.75-3.9 16.27-5.83 17.8-7.75 19.8-9.2L19.8-9.2Q20.55-9.8 22.2-9.8L22.2-9.8Q23.15-9.8 23.87-9.53 24.6-9.25 24.9-8.7L24.9-8.7Q25.2-8.2 25.2-7.55L25.2-7.55Q25.2-7.45 25.17-7.25 25.15-7.05 25.1-6.8L25.1-6.8Q25.2-6.85 25.42-6.85 25.65-6.85 26-6.9L26-6.9Q26.35-6.95 26.67-7 27-7.05 27.35-7.05L27.35-7.05 27.55-7.05Q28.1-7.05 27.67-6.63 27.25-6.2 26.55-6.1L26.55-6.1 24.85-5.9Q24.35-4.5 23.12-3.1 21.9-1.7 20.42-0.68 18.95 0.35 17.65 0.65L17.65 0.65Q16.9 0.85 16.1 0.85ZM22.5-6.6L22.5-6.6Q22.8-6.6 23.22-6.63 23.65-6.65 24.2-6.7L24.2-6.7Q24.25-6.8 24.25-7.15L24.25-7.15Q24.25-8.05 23.5-8.4L23.5-8.4Q23.1-8.65 22.5-8.65L22.5-8.65Q21.75-8.65 20.97-8.18 20.2-7.7 19.35-6.95L19.35-6.95Q20.4-6.6 22.5-6.6ZM17.6-0.9L17.6-0.9Q18.1-0.9 19.02-1.38 19.95-1.85 20.95-2.65 21.95-3.45 22.75-4.35L22.75-4.35Q23-4.6 23.25-4.98 23.5-5.35 23.8-5.75L23.8-5.75 22.6-5.6Q19.8-5.2 17.6-5.15L17.6-5.15Q16.5-3.35 16.25-2.15L16.25-2.15Q16.2-1.5 16.6-1.2 17-0.9 17.6-0.9ZM27.9 0.85L27.9 0.85Q25.95 0.85 25.95-0.9L25.95-0.9Q25.95-1 25.97-1.25 26-1.5 26.05-1.85L26.05-1.85Q26.55-3.9 28.07-5.83 29.6-7.75 31.6-9.2L31.6-9.2Q32.34-9.8 34-9.8L34-9.8Q34.95-9.8 35.67-9.53 36.4-9.25 36.7-8.7L36.7-8.7Q37-8.2 37-7.55L37-7.55Q37-7.45 36.97-7.25 36.95-7.05 36.9-6.8L36.9-6.8Q37-6.85 37.22-6.85 37.45-6.85 37.8-6.9L37.8-6.9Q38.15-6.95 38.47-7 38.8-7.05 39.15-7.05L39.15-7.05 39.34-7.05Q39.9-7.05 39.47-6.63 39.05-6.2 38.34-6.1L38.34-6.1 36.65-5.9Q36.15-4.5 34.92-3.1 33.7-1.7 32.22-0.68 30.75 0.35 29.45 0.65L29.45 0.65Q28.7 0.85 27.9 0.85ZM34.3-6.6L34.3-6.6Q34.59-6.6 35.02-6.63 35.45-6.65 36-6.7L36-6.7Q36.05-6.8 36.05-7.15L36.05-7.15Q36.05-8.05 35.3-8.4L35.3-8.4Q34.9-8.65 34.3-8.65L34.3-8.65Q33.55-8.65 32.77-8.18 32-7.7 31.15-6.95L31.15-6.95Q32.2-6.6 34.3-6.6ZM29.4-0.9L29.4-0.9Q29.9-0.9 30.82-1.38 31.75-1.85 32.75-2.65 33.75-3.45 34.55-4.35L34.55-4.35Q34.8-4.6 35.05-4.98 35.3-5.35 35.59-5.75L35.59-5.75 34.4-5.6Q31.6-5.2 29.4-5.15L29.4-5.15Q28.3-3.35 28.05-2.15L28.05-2.15Q28-1.5 28.4-1.2 28.8-0.9 29.4-0.9ZM38.04 1.05L38.04 1.05Q37.39 1.05 37.39-0.1L37.39-0.1Q37.39-1.05 37.84-1.95L37.84-1.95Q38.99-4.15 39.94-6.3L39.94-6.3Q40.59-7.6 41.17-8.8 41.74-10 42.24-11L42.24-11Q42.54-11.3 42.84-11.3L42.84-11.3Q43.49-11.3 43.24-10.7L43.24-10.7Q43.14-10.35 42.97-9.88 42.79-9.4 42.54-8.75L42.54-8.75Q41.74-6.65 41.59-5.8L41.59-5.8Q42.99-7.05 44.47-8.13 45.94-9.2 47.24-9.9 48.54-10.6 49.44-10.6L49.44-10.6Q50.24-10.6 50.24-9.95L50.24-9.95Q50.24-9.4 49.74-8.78 49.24-8.15 48.74-8.15L48.74-8.15Q48.49-8.15 48.34-8.3L48.34-8.3Q48.19-8.35 47.74-8.35L47.74-8.35Q46.14-8.35 44.39-6.8L44.39-6.8Q42.54-5.25 41.04-3.08 39.54-0.9 38.84 0.7L38.84 0.7Q38.49 1.05 38.04 1.05ZM56.54 10.75L56.54 10.75Q55.44 10.75 54.71 9.73 53.99 8.7 53.99 7.4L53.99 7.4Q53.99 6.35 54.29 5.85L54.29 5.85Q54.69 5.3 55.04 5.3L55.04 5.3Q55.44 5.3 55.44 5.75L55.44 5.75Q55.44 6.15 55.14 6.55L55.14 6.55Q54.94 6.8 54.94 7.2L54.94 7.2Q54.94 7.95 55.44 8.7 55.94 9.45 56.64 9.45L56.64 9.45Q56.74 9.45 56.84 9.43 56.94 9.4 57.09 9.35L57.09 9.35Q59.44 8.45 61.39 5.6L61.39 5.6Q63.34 2.7 64.59-0.78 65.84-4.25 66.44-7.2L66.44-7.2 66.24-7.25Q66.09-7.35 65.79-7.03 65.49-6.7 65.19-6.33 64.89-5.95 64.79-5.8L64.79-5.8Q64.64-5.6 64.01-4.93 63.39-4.25 62.54-3.43 61.69-2.6 60.84-1.8 59.99-1 59.39-0.5L59.39-0.5Q58.64 0.15 57.54 0.15L57.54 0.15Q57.24 0.15 56.94 0.05L56.94 0.05Q56.39-0.25 56.39-0.9L56.39-0.9Q56.39-1.75 57.39-3.5L57.39-3.5Q58.14-4.8 59.64-6.78 61.14-8.75 62.94-10.15L62.94-10.15Q64.24-11.2 65.64-11.5L65.64-11.5Q65.89-11.55 66.14-11.58 66.39-11.6 66.64-11.65L66.64-11.65Q66.89-11.65 67.09-11.65 67.29-11.65 67.49-11.7L67.49-11.7Q67.54-11.7 68.26-11.78 68.99-11.85 69.19-12.25L69.19-12.25 69.34-12.3Q69.54-12.3 69.74-12.1L69.74-12.1Q69.89-11.95 69.89-11.5L69.89-11.5Q69.89-11.35 69.84-11.13 69.79-10.9 69.79-10.6L69.79-10.6 69.79-10.55Q69.79-8.7 69.09-6.73 68.39-4.75 67.59-2.7L67.59-2.7Q65.94 1.45 63.41 5 60.89 8.55 57.84 10.35L57.84 10.35Q57.19 10.75 56.54 10.75ZM58.04-1.65L58.04-1.65Q58.24-1.55 58.34-1.55L58.34-1.55Q58.59-1.55 59.09-1.8L59.09-1.8Q59.44-2 59.81-2.3 60.19-2.6 60.69-3L60.69-3Q61.04-3.25 61.49-3.7 61.94-4.15 62.54-4.75L62.54-4.75 63.49-5.65Q64.19-6.35 64.99-7.3 65.79-8.25 66.34-9.15 66.89-10.05 66.89-10.55L66.89-10.55Q66.89-11 66.34-11L66.34-11Q65.79-11 64.86-10.4 63.94-9.8 62.96-8.95 61.99-8.1 61.29-7.3L61.29-7.3Q60.64-6.65 60.06-5.88 59.49-5.1 58.94-4.25L58.94-4.25Q58.29-3.3 58.04-2.6L58.04-2.6Q57.74-1.85 58.04-1.65ZM71.64 0.85L71.64 0.85Q69.69 0.85 69.69-0.9L69.69-0.9Q69.69-1 69.71-1.25 69.74-1.5 69.79-1.85L69.79-1.85Q70.29-3.9 71.81-5.83 73.34-7.75 75.34-9.2L75.34-9.2Q76.09-9.8 77.74-9.8L77.74-9.8Q78.69-9.8 79.41-9.53 80.14-9.25 80.44-8.7L80.44-8.7Q80.74-8.2 80.74-7.55L80.74-7.55Q80.74-7.45 80.71-7.25 80.69-7.05 80.64-6.8L80.64-6.8Q80.74-6.85 80.96-6.85 81.19-6.85 81.54-6.9L81.54-6.9Q81.89-6.95 82.21-7 82.54-7.05 82.89-7.05L82.89-7.05 83.09-7.05Q83.64-7.05 83.21-6.63 82.79-6.2 82.09-6.1L82.09-6.1 80.39-5.9Q79.89-4.5 78.66-3.1 77.44-1.7 75.96-0.68 74.49 0.35 73.19 0.65L73.19 0.65Q72.44 0.85 71.64 0.85ZM78.04-6.6L78.04-6.6Q78.34-6.6 78.76-6.63 79.19-6.65 79.74-6.7L79.74-6.7Q79.79-6.8 79.79-7.15L79.79-7.15Q79.79-8.05 79.04-8.4L79.04-8.4Q78.64-8.65 78.04-8.65L78.04-8.65Q77.29-8.65 76.51-8.18 75.74-7.7 74.89-6.95L74.89-6.95Q75.94-6.6 78.04-6.6ZM73.14-0.9L73.14-0.9Q73.64-0.9 74.56-1.38 75.49-1.85 76.49-2.65 77.49-3.45 78.29-4.35L78.29-4.35Q78.54-4.6 78.79-4.98 79.04-5.35 79.34-5.75L79.34-5.75 78.14-5.6Q75.34-5.2 73.14-5.15L73.14-5.15Q72.04-3.35 71.79-2.15L71.79-2.15Q71.74-1.5 72.14-1.2 72.54-0.9 73.14-0.9ZM81.93 3.3L81.93 3.3Q81.38 3.3 81.01 2.95 80.63 2.6 80.68 2.1L80.68 2.1Q80.78 0.05 81.46-1.85 82.13-3.75 83.43-6.4L83.43-6.4Q83.58-6.75 83.71-7.03 83.83-7.3 83.93-7.5L83.93-7.5Q85.03-9.85 86.18-12 87.33-14.15 88.48-16.2L88.48-16.2 89.18-17.45Q90.38-19.6 91.28-20.93 92.18-22.25 93.08-22.85L93.08-22.85Q94.23-23.55 94.48-23.55L94.48-23.55Q94.88-23.55 95.28-22.85L95.28-22.85Q95.53-22.35 94.28-20.4L94.28-20.4Q93.63-19.4 92.66-17.9 91.68-16.4 90.33-14.5L90.33-14.5Q90.08-14.15 89.51-13.28 88.93-12.4 87.98-11L87.98-11Q87.03-9.6 86.33-8.47 85.63-7.35 85.18-6.5L85.18-6.5Q84.28-4.85 83.48-2.98 82.68-1.1 82.68-0.05L82.68-0.05Q82.68 0.9 83.43 0.9L83.43 0.9Q84.63 0.9 87.28-1.15L87.28-1.15Q87.58-1.1 87.58-0.85L87.58-0.85Q87.58-0.65 87.08-0.15L87.08-0.15Q86.63 0.3 85.96 0.83 85.28 1.35 84.38 2.05L84.38 2.05 83.58 2.65Q82.78 3.3 81.93 3.3ZM97.88 3.75L97.88 3.75Q97.13 3.75 96.78 3L96.78 3Q96.73 2.95 96.73 2.7L96.73 2.7Q96.73 2.45 96.98 1.55L96.98 1.55Q97.08 1.3 97.16 1.05 97.23 0.8 97.33 0.55L97.33 0.55Q97.43 0.3 97.53-0.03 97.63-0.35 97.73-0.7L97.73-0.7Q97.93-1.45 97.93-1.95L97.93-1.95Q97.93-2.65 97.48-2.65L97.48-2.65Q97.33-2.65 96.93-2.4L96.93-2.4Q96.28-1.9 95.56-1.45 94.83-1 94.03-0.6L94.03-0.6 92.43 0.25 91.38 0.85Q91.23 0.9 90.68 1.3L90.68 1.3Q90.18 1.6 89.63 1.6L89.63 1.6Q88.98 1.6 88.18 0.9L88.18 0.9Q87.58 0.3 87.58-0.35L87.58-0.35Q87.58-0.9 88.13-1.9L88.13-1.9Q88.53-2.55 89.48-3.5L89.48-3.5Q89.88-3.9 90.16-4.23 90.43-4.55 90.63-4.75L90.63-4.75Q92.73-7.55 97.13-9.7L97.13-9.7Q98.38-10.35 99.38-10.35L99.38-10.35Q100.48-10.35 101.13-9.45L101.13-9.45Q101.43-10.05 102.11-11.18 102.78-12.3 103.61-13.65 104.43-15 105.21-16.2 105.98-17.4 106.43-18.05L106.43-18.05Q107.78-19.9 108.63-20.85L108.63-20.85Q109.48-21.75 110.18-21.75L110.18-21.75Q110.43-21.75 110.83-21.5L110.83-21.5Q111.18-21.2 111.18-20.7L111.18-20.7Q111.18-19.95 110.53-18.95 109.88-17.95 108.73-16.5L108.73-16.5Q108.63-16.35 108.43-16.13 108.23-15.9 107.98-15.55L107.98-15.55Q107.43-14.75 106.83-13.88 106.23-13 105.53-12.15L105.53-12.15Q104.53-10.85 103.43-9.33 102.33-7.8 101.38-6.15L101.38-6.15Q100.53-4.65 99.93-3.08 99.33-1.5 98.93 0.1L98.93 0.1Q98.88 0.45 98.86 0.68 98.83 0.9 98.83 1L98.83 1 98.88 1.75Q98.93 1.9 98.93 2.45L98.93 2.45Q98.93 3.75 97.88 3.75ZM91.03-0.55L91.03-0.55Q91.58-0.55 92.03-0.75L92.03-0.75Q93.93-1.4 95.63-2.4 97.33-3.4 99.23-5.1L99.23-5.1Q99.48-5.8 99.83-6.6 100.18-7.4 100.58-8.35L100.58-8.35Q99.98-9.6 98.83-9.6L98.83-9.6Q98.08-9.6 97.23-9.1 96.38-8.6 95.33-7.75L95.33-7.75Q94.33-6.95 93.31-5.95 92.28-4.95 91.53-4.03 90.78-3.1 90.48-2.5L90.48-2.5Q90.18-2 90.18-1.35L90.18-1.35Q90.18-0.55 91.03-0.55Z" opacity="1" transform="matrix(1,0,0,1,0,0)" fill="#009b7d" class="wordmark-text-0" data-fill-palette-color="primary" id="text-0"></path></svg></g></svg></g></svg></g></svg></g><g transform="matrix(1,0,0,1,102.33942626262625,0)"><svg viewBox="0 0 190.8411474747475 174.8411474747475" height="174.8411474747475" width="190.8411474747475"><g><svg xmlns="http://www.w3.org/2000/svg" data-name="Layer 1" viewBox="2 2 60 60" x="8" y="0" height="174.8411474747475" width="174.8411474747475" class="icon-icon-0" data-fill-palette-color="accent" id="icon-0"><path d="M36 21.428l4.682-1.57a1 1 0 0 1 1.267 1.263l-1.687 5.088 9.594 3.216A21.81 21.81 0 0 0 36 11.022ZM42.657 40.515a0.27 0.27 0 0 0 0.042 0.164 0.4 0.4 0 0 0 0.17 0.026 1.1 1.1 0 0 0 0.304-0.057l-0.467-0.429a1 1 0 0 0-0.049 0.296M26.166 43.484a1 1 0 0 1-0.086-0.944l4.68-10.982-9.204 6.17a1 1 0 0 1-1.358-1.428l5.406-7.249-7.207-5.435a1 1 0 0 1 0-1.596l7.517-5.67-1.02-6.16C15.198 12.225 8 21.352 8 31.87 8 44.071 17.42 54 29 54a20 20 0 0 0 3.882-0.38ZM46.91 41.041a0.27 0.27 0 0 0-0.039-0.17 0.3 0.3 0 0 0-0.171-0.037 1.1 1.1 0 0 0-0.304 0.057l0.466 0.428a1 1 0 0 0 0.048-0.278M40.324 45.278c-2.774-2.538-4.642-5.57-5.074-8.137a2.6 2.6 0 0 0-0.25 1.278c0.07 2.176 1.846 5.17 4.525 7.628 3.705 3.397 7.65 4.528 9.367 3.621a15.87 15.87 0 0 1-8.568-4.39" fill="#ffbf5d" data-fill-palette-color="accent"></path><path d="M32 2a30 30 0 1 0 30 30A30 30 0 0 0 32 2m2 7.624a1 1 0 0 1 0.028-0.14 1 1 0 0 1 0.013-0.145c0.005-0.019 0.02-0.031 0.026-0.05a1 1 0 0 1 0.095-0.18 0.84 0.84 0 0 1 0.581-0.434 1 1 0 0 1 0.201-0.04c0.02-0.001 0.036-0.011 0.056-0.011a1.3 1.3 0 0 0 0.284 0.04 23.83 23.83 0 0 1 16.685 22.149 1 1 0 0 1-0.959 1.04h-0.04a1 1 0 0 1-0.292-0.057l-0.004 0.013-0.03-0.01-11.962-4.01a1 1 0 0 1-0.632-1.263l1.37-4.135-4.103 1.375A1 1 0 0 1 34 22.818Zm1.243 45.294a1 1 0 0 1-0.152 0.153c-0.012 0.008-0.017 0.02-0.029 0.028a1 1 0 0 1-0.28 0.127l-0.008 0.004A21.8 21.8 0 0 1 29 56C16.317 56 6 45.175 6 31.87 6 20.028 14.4 9.774 25.545 8.013h0.002l0.007-0.002a1 1 0 0 1 0.126 0.006 1 1 0 0 1 0.27 0.012 1.34 1.34 0 0 1 0.606 0.439 1 1 0 0 1 0.08 0.211 1 1 0 0 1 0.06 0.156l0.001 0.007v0.002l1.289 7.776a1 1 0 0 1-0.384 0.961l-6.942 5.236 6.942 5.236a1 1 0 0 1 0.2 1.396l-2.512 3.367 7.153-4.796a1 1 0 0 1 1.476 1.223L28.13 42.828l7.213 10.885a2 2 0 0 0 0.131 0.288c0.004 0.014 0 0.027 0.003 0.041a1 1 0 0 1 0.014 0.211 0.58 0.58 0 0 1-0.061 0.357 0.58 0.58 0 0 1-0.187 0.308m17.68-6.428l-2.14 2.242a4.42 4.42 0 0 1-3.298 1.229c-2.696 0-6.194-1.581-9.311-4.44-3.104-2.847-5.086-6.31-5.172-9.04a4.2 4.2 0 0 1 1.077-3.12l2.137-2.241c2.388-2.486 7.925-1.075 12.609 3.211 3.107 2.857 5.088 6.322 5.173 9.045a4.19 4.19 0 0 1-1.072 3.11Z" fill="#ffbf5d" data-fill-palette-color="accent"></path><path d="M37.66 34.503a2.23 2.23 0 0 0-0.514 1.678c0.073 2.18 1.85 5.172 4.529 7.622 4.07 3.734 8.433 4.738 9.802 3.305l0.002-0.002a2.22 2.22 0 0 0 0.52-1.668c-0.068-2.17-1.844-5.167-4.526-7.633-2.897-2.65-5.943-3.925-7.954-3.925a2.52 2.52 0 0 0-1.858 0.622Zm3.245 2.702a1 1 0 0 1 1.413-0.056l0.137 0.126 0.931-0.977a1 1 0 0 1 1.448 1.38l-0.905 0.95 0.907 0.831a2.86 2.86 0 0 1 3.387-0.063 2.2 2.2 0 0 1 0.687 1.645 3.4 3.4 0 0 1-0.507 1.692l0.771 0.708a1 1 0 1 1-1.35 1.475l-0.705-0.647-0.936 0.982a1 1 0 1 1-1.447-1.38l0.91-0.954-0.916-0.84a2.86 2.86 0 0 1-3.385 0.074 2.2 2.2 0 0 1-0.687-1.583 3.35 3.35 0 0 1 0.509-1.761l-0.206-0.19a1 1 0 0 1-0.056-1.412" fill="#ffbf5d" data-fill-palette-color="accent"></path></svg></g></svg></g><g><rect width="52.17354941984068" height="11.409084743369698" y="162.4320627313778" x="293.1805737373737" fill="#ffbf5d" data-fill-palette-color="accent"></rect><rect width="52.17354941984068" height="11.409084743369698" y="162.4320627313778" x="50.165876842785565" fill="#ffbf5d" data-fill-palette-color="accent"></rect><rect width="52.17354941984068" height="11.409084743369698" y="139.6138932446384" x="293.1805737373737" fill="#ffbf5d" data-fill-palette-color="accent"></rect><rect width="52.17354941984068" height="11.409084743369698" y="139.6138932446384" x="50.165876842785565" fill="#ffbf5d" data-fill-palette-color="accent"></rect></g></svg></g><defs></defs></svg><rect width="295.18824631442885" height="247.2" fill="none" stroke="none" visibility="hidden"></rect></g></svg></g></svg>